<svg xmlns="http://www.w3.org/2000/svg" viewBox="0 0 100 100" shape-rendering="geometricPrecision">
  <rect width="100" height="100" fill="#ffffff"/>
  <svg x="14.00" y="14.00" width="72.00" height="72.00"
       viewBox="0 0 992.0 1600.0"
       preserveAspectRatio="xMidYMid meet">
    <g transform="translate(0.000000,1600.000000) scale(0.100000,-0.100000)"
fill="#1f71ad" stroke="none">
<path d="M7800 11739 c-30 -4 -172 -7 -315 -7 -289 1 -340 -5 -398 -53 -54
-44 -56 -62 -60 -557 -4 -504 -1 -486 -71 -486 -43 0 -120 51 -226 150 -41 38
-105 90 -140 114 -36 24 -104 80 -151 124 -47 45 -110 99 -140 122 -30 23 -88
66 -129 97 -41 31 -109 86 -150 122 -41 36 -101 86 -134 113 -32 26 -92 77
-132 113 -90 83 -122 94 -323 116 -278 31 -351 15 -466 -102 -38 -39 -91 -81
-116 -93 -25 -12 -72 -46 -105 -75 -32 -29 -81 -70 -109 -92 -27 -22 -111 -91
-185 -155 -74 -63 -162 -135 -196 -160 -130 -95 -225 -172 -251 -206 -16 -19
-53 -51 -83 -71 -58 -39 -174 -140 -269 -234 -31 -31 -78 -66 -106 -79 -30
-15 -80 -54 -125 -101 -41 -42 -97 -89 -125 -104 -27 -16 -70 -47 -95 -70 -25
-23 -70 -60 -101 -82 -30 -23 -69 -55 -85 -72 -16 -18 -69 -59 -119 -93 -88
-60 -153 -113 -284 -234 -36 -33 -88 -76 -116 -94 -27 -18 -77 -58 -111 -89
-114 -105 -179 -158 -236 -195 -31 -19 -78 -60 -104 -91 -26 -30 -66 -67 -88
-82 -23 -15 -67 -51 -99 -80 -32 -29 -88 -70 -126 -93 -40 -23 -87 -61 -112
-91 -23 -28 -68 -69 -98 -92 -31 -23 -89 -73 -129 -113 -90 -89 -94 -115 -31
-190 22 -27 56 -79 75 -115 24 -45 62 -92 124 -151 49 -48 101 -105 116 -128
44 -67 101 -94 198 -94 102 0 144 20 208 101 32 41 79 81 162 136 75 51 136
102 173 144 31 35 75 74 97 85 23 11 70 50 106 87 36 37 88 80 117 97 29 16
89 63 134 104 44 41 113 105 152 141 40 36 97 82 127 101 30 19 64 45 75 58
11 12 44 38 74 57 30 19 108 86 173 149 66 64 150 135 188 159 37 24 94 69
127 100 32 31 76 68 98 82 22 14 70 54 107 89 36 35 71 64 77 64 6 0 46 33 89
73 42 40 100 86 127 102 28 16 77 54 110 85 33 31 78 69 100 85 48 35 152 125
249 216 39 37 87 74 106 84 51 26 77 48 116 100 20 25 60 59 90 76 30 17 73
53 95 79 96 114 264 110 393 -10 33 -31 81 -70 106 -87 25 -17 65 -52 90 -78
25 -26 70 -64 101 -85 31 -21 63 -50 72 -64 9 -13 45 -45 79 -70 35 -24 80
-65 100 -89 20 -24 61 -58 90 -75 29 -16 73 -47 98 -69 25 -22 83 -65 130 -95
54 -36 112 -86 160 -138 47 -52 104 -102 155 -135 44 -28 99 -72 121 -98 22
-25 64 -62 93 -82 63 -42 178 -143 275 -242 39 -39 99 -88 132 -107 79 -46
136 -91 254 -203 53 -49 119 -102 147 -118 29 -15 71 -49 93 -76 23 -28 69
-64 106 -85 43 -24 74 -51 95 -80 20 -29 60 -64 112 -98 45 -29 107 -76 138
-104 31 -28 78 -69 105 -91 27 -22 56 -49 64 -61 19 -29 244 -198 287 -216 41
-18 115 -18 156 0 32 13 172 160 216 226 13 19 57 67 97 105 167 161 136 349
-81 486 -33 21 -85 63 -114 94 -30 31 -81 74 -112 96 -31 21 -70 54 -86 73
-15 19 -55 52 -88 74 -33 22 -75 58 -93 81 -18 22 -59 57 -90 77 -31 20 -79
57 -107 84 -27 26 -82 68 -121 94 -80 52 -143 115 -172 173 -19 37 -20 60 -20
558 -1 286 3 579 8 651 12 176 -5 640 -25 712 -37 127 -159 194 -315 171z"/>
<path d="M5248 10125 c-59 -22 -87 -45 -129 -107 -29 -42 -53 -65 -90 -84 -48
-24 -97 -65 -288 -241 -43 -39 -104 -88 -137 -109 -32 -21 -79 -56 -104 -79
-25 -23 -70 -59 -100 -80 -30 -22 -85 -67 -121 -100 -97 -87 -203 -174 -265
-216 -30 -21 -76 -55 -102 -77 -26 -22 -72 -55 -102 -75 -30 -19 -77 -58 -105
-87 -27 -28 -69 -63 -92 -76 -23 -14 -62 -49 -87 -78 -25 -30 -69 -67 -98 -84
-29 -16 -72 -53 -96 -81 -25 -30 -65 -62 -95 -78 -29 -14 -82 -55 -119 -91
-37 -35 -92 -81 -122 -101 -73 -48 -279 -271 -312 -339 -23 -44 -26 -60 -20
-105 15 -124 18 -251 7 -320 -10 -61 -9 -84 4 -147 12 -53 14 -96 10 -145 -11
-106 -7 -1529 4 -1557 5 -13 26 -39 47 -57 38 -34 38 -34 123 -26 47 5 151 7
231 6 138 -3 147 -2 180 21 69 46 66 20 68 691 1 688 8 974 25 1032 16 57 105
143 194 187 72 36 72 36 650 33 594 -3 725 -11 834 -53 94 -36 175 -351 149
-577 -7 -55 -11 -147 -9 -205 1 -58 -1 -159 -6 -225 -6 -95 -4 -143 10 -229
18 -114 11 -293 -16 -436 -25 -133 -21 -164 31 -201 53 -39 159 -42 1455 -40
1396 3 1308 -2 1340 75 18 43 22 2087 4 2236 -17 148 -51 197 -189 275 -36 21
-86 61 -114 91 -26 30 -66 64 -88 75 -21 11 -56 35 -76 53 -20 18 -68 57 -107
85 -38 29 -122 102 -187 162 -64 60 -151 135 -195 168 -43 32 -89 70 -103 85
-14 16 -54 45 -90 66 -36 21 -84 62 -108 90 -24 28 -66 62 -93 75 -27 14 -66
44 -87 66 -20 22 -62 58 -92 79 -30 21 -72 56 -93 79 -21 23 -66 59 -100 81
-34 21 -79 59 -100 84 -21 26 -71 68 -110 95 -78 53 -173 130 -277 227 -36 33
-87 73 -115 89 -27 16 -77 54 -110 86 -124 118 -215 151 -317 114z m1787
-2525 c15 -6 71 -14 125 -19 209 -17 223 -55 218 -596 -3 -361 -3 -361 -29
-410 -43 -85 -83 -107 -245 -135 -139 -24 -139 -24 -590 -13 -510 12 -504 11
-564 95 -52 71 -61 124 -58 324 2 99 1 271 -1 384 -4 226 0 250 56 303 63 59
103 64 473 62 184 -2 364 1 400 5 99 11 186 11 215 0z"/>
</g>
  </svg>
</svg>