<?xml version="1.0" standalone="no"?>
<!DOCTYPE svg PUBLIC "-//W3C//DTD SVG 20010904//EN"
 "http://www.w3.org/TR/2001/REC-SVG-20010904/DTD/svg10.dtd">
<svg shape-rendering="geometricPrecision" version="1.0" xmlns="http://www.w3.org/2000/svg"
 width="2400.000000pt" height="800.000000pt" viewBox="0 0 2400.000000 800.000000"
 preserveAspectRatio="xMidYMid meet">
<metadata>
Created by potrace 1.16, written by Peter Selinger 2001-2019
</metadata>
<g transform="translate(0.000000,800.000000) scale(0.100000,-0.100000)"
fill="#1f71ad" stroke="none">
<path d="M3599 5863 c-23 -3 -46 -14 -60 -29 -24 -25 -24 -28 -25 -258 -1
-129 -4 -239 -8 -245 -15 -24 -56 -10 -117 42 -86 72 -134 111 -229 187 -45
36 -134 109 -197 163 -136 117 -148 123 -279 132 -112 8 -180 -10 -203 -54 -7
-12 -28 -30 -49 -41 -20 -11 -68 -47 -107 -80 -38 -33 -115 -96 -170 -140
-101 -81 -123 -99 -275 -232 -47 -40 -102 -84 -123 -97 -20 -12 -42 -31 -48
-42 -5 -11 -29 -31 -52 -46 -23 -14 -69 -49 -102 -78 -33 -28 -85 -70 -115
-92 -30 -22 -83 -65 -116 -94 -34 -30 -103 -88 -154 -129 -51 -41 -117 -98
-148 -125 -32 -28 -84 -71 -117 -95 -99 -73 -245 -210 -245 -230 0 -10 11 -31
24 -47 12 -15 29 -39 36 -53 30 -57 154 -180 188 -186 48 -9 104 11 130 45 12
17 43 44 69 62 45 30 107 82 195 164 20 18 49 42 65 52 15 9 67 51 114 93 47
41 110 93 139 115 30 22 84 67 120 101 36 33 81 71 100 84 19 13 44 33 56 44
12 12 49 44 84 71 34 28 84 68 111 90 27 22 74 60 104 85 80 64 233 192 280
235 125 112 144 125 188 125 61 -1 58 1 290 -200 143 -124 171 -146 232 -186
22 -15 70 -54 107 -88 36 -33 94 -83 128 -111 104 -85 183 -156 198 -176 7
-11 31 -28 52 -39 22 -11 68 -46 102 -79 35 -32 82 -70 106 -85 23 -14 42 -31
42 -36 0 -5 19 -22 42 -36 24 -15 51 -38 62 -51 10 -13 37 -36 59 -50 40 -25
78 -57 149 -124 69 -66 146 -113 185 -113 30 0 43 8 90 59 29 33 74 81 98 107
76 82 74 153 -7 220 -77 65 -228 194 -273 233 -88 77 -132 112 -173 140 -89
59 -83 23 -85 558 -3 610 18 566 -262 564 -94 0 -186 -2 -206 -4z"/>
<path d="M21675 5214 c-205 -21 -299 -39 -368 -72 -34 -17 -80 -33 -101 -38
-25 -4 -55 -21 -80 -44 -23 -21 -54 -44 -71 -53 -55 -27 -233 -213 -260 -270
-14 -28 -34 -66 -45 -82 -11 -17 -26 -62 -34 -100 -8 -39 -27 -96 -41 -128
-27 -57 -27 -59 -28 -315 -2 -260 6 -339 39 -404 8 -15 21 -59 29 -99 8 -39
25 -85 38 -102 12 -17 33 -52 47 -78 36 -69 142 -201 192 -240 24 -19 49 -39
56 -46 52 -50 105 -83 157 -98 33 -9 69 -22 80 -29 105 -67 472 -110 700 -81
61 7 135 16 165 20 149 16 349 94 440 170 24 20 64 47 89 60 76 38 259 300
286 409 7 28 26 85 41 126 28 75 28 75 28 356 -1 274 -1 282 -26 360 -15 43
-33 104 -42 134 -8 30 -26 71 -39 90 -13 19 -30 53 -37 74 -7 22 -32 60 -56
84 -24 24 -44 48 -44 52 0 5 -35 37 -77 73 -222 183 -407 253 -718 271 -60 4
-126 8 -145 10 -19 2 -98 -3 -175 -10z m353 -554 c119 -49 152 -75 201 -158
76 -127 93 -214 89 -452 -4 -204 -4 -205 -38 -294 -72 -193 -206 -286 -423
-294 -92 -4 -104 -2 -202 33 -98 35 -107 41 -140 86 -19 27 -39 49 -45 49 -14
0 -44 62 -76 160 -26 81 -28 94 -28 275 0 232 15 312 74 421 45 81 66 100 185
164 132 71 245 74 403 10z"/>
<path d="M6796 5183 c-36 -19 -36 -19 -36 -389 1 -186 0 -361 -1 -389 -4 -88
-2 -139 6 -179 7 -32 5 -41 -10 -52 -31 -23 -72 -17 -92 12 -10 14 -47 60 -83
102 -36 43 -87 104 -112 137 -25 33 -60 74 -78 90 -18 17 -46 50 -63 75 -30
45 -65 84 -227 260 -46 51 -110 126 -141 168 -127 171 -131 172 -448 172 -301
0 -304 0 -316 -53 -3 -12 -4 -498 -3 -1079 3 -999 4 -1058 21 -1075 23 -24
124 -30 392 -23 196 5 208 6 224 26 16 20 17 59 16 485 -2 473 1 509 33 509
18 0 160 -146 239 -247 63 -80 132 -160 209 -242 40 -42 95 -105 124 -141 28
-36 95 -110 149 -166 54 -55 111 -120 125 -143 51 -80 55 -81 359 -81 280 0
315 5 331 45 3 9 5 494 5 1077 -1 1061 -1 1061 -25 1085 -13 13 -35 23 -52 23
-16 0 -140 1 -275 3 -188 3 -251 0 -271 -10z"/>
<path d="M8795 5193 c-624 -2 -846 -6 -863 -15 -13 -7 -26 -26 -31 -47 -5 -20
-8 -501 -7 -1089 1 -1034 1 -1054 21 -1068 32 -24 1886 -20 1907 4 33 37 31
463 -1 504 -16 19 -28 20 -564 18 -363 0 -561 3 -587 10 -63 17 -71 38 -64
171 8 176 -45 159 511 159 299 0 471 4 484 10 41 23 48 57 48 249 0 268 52
244 -519 243 -516 -2 -500 -4 -519 65 -14 49 -14 137 0 185 19 70 2 68 614 68
676 0 605 -32 600 271 -2 118 -4 220 -4 227 -3 37 -32 38 -1026 35z"/>
<path d="M10280 5188 c-40 -15 -40 -14 -40 -1117 0 -1058 0 -1071 20 -1091 19
-19 33 -20 329 -20 412 0 370 -42 369 366 -1 268 1 318 14 333 13 16 44 18
304 24 343 8 388 14 519 73 231 104 327 234 390 523 29 129 30 178 10 276 -9
39 -21 102 -29 141 -14 77 -19 87 -49 121 -11 12 -32 44 -46 71 -15 28 -64 85
-112 130 -81 77 -90 83 -200 123 -114 42 -114 42 -604 45 -269 2 -572 5 -673
7 -101 1 -192 -1 -202 -5z m1031 -538 c83 -15 102 -27 134 -78 70 -115 18
-342 -79 -342 -15 0 -51 -9 -81 -19 -52 -19 -244 -22 -296 -6 -23 8 -29 55
-29 238 0 153 6 191 34 209 16 11 255 10 317 -2z"/>
<path d="M13184 5190 c-279 -6 -278 -5 -289 -73 -4 -23 -22 -70 -40 -104 -19
-34 -39 -89 -45 -123 -6 -33 -27 -92 -45 -130 -19 -37 -42 -98 -50 -135 -9
-37 -26 -89 -39 -114 -13 -25 -31 -71 -41 -101 -10 -30 -28 -75 -41 -100 -12
-25 -31 -84 -42 -130 -11 -47 -34 -113 -51 -147 -17 -34 -31 -66 -31 -72 0
-17 -89 -254 -110 -292 -10 -20 -29 -72 -40 -115 -12 -43 -32 -102 -45 -131
-14 -29 -32 -84 -41 -121 -10 -37 -27 -85 -39 -107 -13 -22 -33 -71 -46 -108
-22 -68 -22 -68 -2 -95 20 -27 20 -27 327 -30 385 -3 376 -7 412 171 21 105
23 108 58 122 45 19 626 27 709 10 72 -15 79 -25 105 -148 35 -163 24 -159
445 -155 302 3 319 4 333 22 20 29 17 57 -12 112 -28 53 -71 164 -111 284 -13
41 -36 98 -50 125 -14 28 -32 75 -39 106 -7 31 -25 83 -39 114 -14 32 -32 85
-41 118 -8 33 -26 81 -39 107 -13 26 -31 75 -40 111 -9 35 -28 81 -42 101 -14
22 -31 67 -39 108 -7 38 -24 93 -38 120 -14 27 -35 83 -47 122 -11 40 -29 87
-40 104 -10 17 -26 62 -35 100 -8 38 -25 84 -36 102 -11 18 -29 67 -39 109
-10 42 -28 90 -38 107 -11 17 -29 56 -41 88 -11 31 -28 59 -38 63 -23 9 -241
11 -548 5z m170 -712 c8 -13 22 -52 30 -88 17 -79 77 -271 100 -322 9 -21 16
-49 16 -63 0 -13 9 -48 20 -77 27 -71 26 -113 -3 -142 -23 -23 -26 -24 -197
-20 -190 4 -206 7 -214 32 -8 25 21 166 44 220 12 25 32 90 46 144 13 54 33
120 43 146 10 26 22 67 26 92 15 92 56 128 89 78z"/>
<path d="M18343 5190 c-29 -3 -58 -11 -65 -18 -15 -15 -30 -2117 -16 -2160 16
-49 106 -57 574 -53 149 1 135 -39 136 399 0 439 -12 404 147 410 83 4 99 2
118 -14 21 -19 175 -301 188 -346 4 -13 24 -54 45 -93 20 -38 43 -87 49 -107
7 -20 24 -54 38 -75 14 -20 31 -57 38 -81 16 -51 31 -71 62 -83 27 -10 710
-13 736 -3 35 13 31 51 -11 117 -23 34 -48 81 -56 105 -8 23 -26 57 -40 75
-13 17 -35 57 -49 88 -14 31 -30 60 -36 64 -7 4 -23 32 -37 63 -14 31 -31 63
-39 72 -7 8 -23 39 -34 68 -12 30 -32 68 -45 85 -26 35 -58 105 -70 150 -8 32
20 64 90 105 95 56 244 224 251 284 3 24 17 68 31 98 34 75 41 203 17 286 -10
32 -23 82 -30 110 -31 131 -206 323 -342 374 -32 12 -82 33 -111 47 -53 26
-53 26 -425 30 -690 7 -1062 8 -1114 3z m1114 -513 c81 -2 110 -18 155 -83 56
-82 57 -139 2 -226 -58 -92 -134 -109 -461 -105 -184 3 -178 -5 -178 213 0
225 -11 215 233 208 97 -3 209 -6 249 -7z"/>
<path d="M15962 5183 c-42 -17 -42 -6 -42 -1117 1 -1016 1 -1056 19 -1078 19
-23 19 -23 340 -26 311 -3 321 -2 341 18 19 19 20 31 20 343 0 296 2 325 18
339 14 13 66 17 317 21 324 6 350 10 494 67 135 54 278 194 346 338 9 18 29
99 46 178 34 168 31 244 -15 427 -22 88 -30 105 -82 169 -31 38 -68 90 -81
114 -19 33 -39 52 -77 71 -28 14 -64 36 -81 48 -36 26 -122 63 -190 81 -50 14
-1341 20 -1373 7z m1033 -534 c127 -26 155 -64 155 -216 0 -157 -17 -179 -160
-215 -77 -20 -116 -24 -205 -22 -151 3 -145 -7 -145 234 0 231 -6 221 143 230
107 6 130 5 212 -11z"/>
<path d="M2613 5057 c-12 -7 -39 -29 -60 -50 -51 -51 -209 -187 -253 -217 -19
-13 -87 -67 -150 -119 -63 -53 -146 -118 -184 -146 -65 -48 -234 -188 -285
-237 -13 -13 -45 -39 -72 -58 -115 -84 -267 -233 -270 -264 0 -6 0 -263 1
-571 2 -674 -18 -605 167 -600 99 3 129 7 142 20 14 14 17 68 21 433 6 469 2
447 82 500 42 27 42 27 322 29 319 3 427 -7 462 -42 31 -31 59 -127 59 -205
-1 -97 -2 -391 -3 -503 -1 -54 -5 -113 -10 -131 -11 -39 0 -71 30 -88 25 -14
1299 -20 1349 -6 47 13 47 20 43 611 -4 636 -2 617 -83 665 -25 14 -62 42 -82
62 -19 19 -58 51 -85 70 -27 19 -83 64 -124 101 -41 36 -104 89 -140 117 -98
78 -162 129 -263 214 -51 43 -117 98 -147 122 -30 25 -88 74 -129 108 -40 35
-90 74 -110 87 -20 13 -52 38 -71 56 -60 56 -109 69 -157 42z m951 -1264 c120
-12 126 -26 126 -286 0 -298 8 -292 -392 -292 -364 0 -349 -12 -352 294 -3
228 2 253 61 278 28 11 58 14 113 10 41 -2 138 -1 215 2 77 4 146 6 154 4 8
-2 42 -6 75 -10z"/>
<path d="M14774 4102 c-55 -8 -59 -27 -56 -245 3 -220 5 -232 31 -246 13 -7
596 -16 733 -12 10 1 26 11 38 23 19 20 20 34 20 228 0 280 46 251 -396 253
-192 1 -359 1 -370 -1z"/>
</g>
</svg>
